<svg id="Layer_2" data-name="Layer 2" xmlns="http://www.w3.org/2000/svg" viewBox="0 0 3450.55 1705.12"><defs><style>.cls-2{fill:#272727}</style></defs><g id="Layer_1-2" data-name="Layer 1"><path class="cls-2" d="M255.87 1506.13c-15.91-7.44-32.26-12.5-49.04-15.2l-27.78-4.51c-16.78-2.69-31.11-6.21-42.98-10.57-11.87-4.35-17.81-11.28-17.81-20.78 0-3.64 1.15-7.48 3.44-11.52 2.29-4.04 6.61-7.52 12.94-10.45 6.33-2.93 15.51-4.39 27.54-4.39s21.85 1.66 28.49 4.99c6.65 3.32 11.56 7.88 14.72 13.65 3.17 5.78 5.54 12.39 7.12 19.83l94.51-19.71c-4.27-21.37-13.7-39.3-28.26-53.79-14.57-14.48-32.53-25.41-53.9-32.77-21.37-7.36-44.56-11.04-69.58-11.04-28.5 0-53.27 4.55-74.33 13.65-21.06 9.1-37.36 21.97-48.92 38.59-11.56 16.62-17.34 36.33-17.34 59.13 0 17.73 3.36 32.65 10.09 44.76s15.79 22.01 27.19 29.68c11.4 7.68 24.14 13.69 38.23 18.05 14.09 4.36 28.49 7.72 43.22 10.09l26.6 4.27c13.14 2.06 24.14 5.74 33.01 11.04 8.86 5.31 13.3 12.31 13.3 21.02 0 3.64-1.15 7.48-3.44 11.52-2.3 4.04-6.93 7.48-13.89 10.33-6.97 2.85-17.49 4.27-31.58 4.27-19.16 0-33.72-3.52-43.69-10.57-9.97-7.04-15.67-18.72-17.1-35.03L0 1600.16c3.96 25.02 13.85 45.24 29.68 60.67s35.22 26.67 58.18 33.72c22.95 7.04 46.94 10.57 71.95 10.57 28.65 0 54.34-4.2 77.06-12.59s40.68-20.9 53.9-37.52c13.22-16.62 19.83-37.28 19.83-61.98 0-22.48-5.15-40.73-15.43-54.74-10.29-14.01-23.39-24.73-39.3-32.18zm185.57-149.6l-120.63 341.95h104.96l22.85-78.84h118.02l22.98 78.84h104.95l-120.15-341.95H441.44zm29.61 185.69l36.4-125.62 36.62 125.62h-73.02zm253.21 156.25h97.36v-127.04h133.69v-83.11H821.62v-48.68h156.49v-83.11H724.26v341.94zm390.63-138.91h128.93v-78.37h-128.93v-41.55h156.48v-83.11h-253.85v341.94h257.18v-83.11h-159.81v-55.8zm195.18-119.92h119.69v258.83h97.36v-258.83h120.15v-83.11h-337.2v83.11zm611.83-68.15c-26.04-14.4-57.03-21.61-92.96-21.61s-66.73 7.21-92.85 21.61c-26.12 14.41-46.23 34.87-60.31 61.38-14.09 26.52-21.14 58.06-21.14 94.63s7.04 68.15 21.14 94.75c14.08 26.6 34.19 47.06 60.31 61.39 26.12 14.33 57.07 21.49 92.85 21.49s66.92-7.16 92.96-21.49c26.04-14.33 46.11-34.79 60.19-61.39 14.09-26.59 21.14-58.18 21.14-94.75s-7.05-68.11-21.14-94.63c-14.09-26.51-34.16-46.97-60.19-61.38zm-28.26 207.3c-5.62 14.09-13.89 24.82-24.82 32.18-10.92 7.36-24.22 11.04-39.89 11.04s-28.94-3.68-39.78-11.04c-10.85-7.36-19.12-18.08-24.82-32.18-5.7-14.09-8.55-31.18-8.55-51.29s2.85-37.4 8.55-51.41c5.7-14.01 13.97-24.69 24.82-32.06 10.84-7.36 24.1-11.04 39.78-11.04s28.97 3.68 39.89 11.04c10.92 7.36 19.19 18.05 24.82 32.06 5.62 14.01 8.43 31.15 8.43 51.41s-2.81 37.2-8.43 51.29zm378.46-61.13c8.91-1.85 18.06-4.97 27.48-9.4 10.45-4.91 19.23-12.62 26.36-23.15 7.13-10.52 10.69-25.05 10.69-43.57 0-27.55-9.74-48.6-29.21-63.16-19.47-14.56-50.97-21.85-94.51-21.85h-167.89v341.95h175.49c22.32 0 43.02-2.89 62.09-8.67 19.07-5.78 34.43-15.63 46.07-29.56 11.63-13.93 17.45-33.09 17.45-57.47s-6.57-44.36-19.71-58.53c-12.74-13.74-30.86-22.59-54.32-26.58zm-129.72-87.04h62.69c13.93 0 23.31 2.46 28.14 7.36 4.83 4.91 7.24 11.48 7.24 19.71 0 9.18-2.73 15.95-8.19 20.3-5.47 4.36-14.53 6.53-27.19 6.53h-62.69v-53.9zm101.39 176.67c-2.69 5.38-7.68 9.58-14.96 12.58-7.28 3.01-17.81 4.51-31.58 4.51h-54.85v-71h54.61c14.72 0 25.69 1.7 32.89 5.11 7.2 3.41 11.99 7.8 14.37 13.18 2.38 5.38 3.56 11.08 3.56 17.1 0 6.97-1.35 13.14-4.04 18.52zm368.54-52.25c0 23.43-5.19 40.45-15.55 51.06-10.37 10.61-26.08 15.91-47.13 15.91s-36.77-5.02-47.14-15.08c-10.37-10.05-15.55-25.13-15.55-45.24v-205.17h-97.36v206.59c0 30.39 6.21 56.16 18.64 77.29 12.42 21.13 30.55 37.2 54.38 48.2 23.82 11 52.83 16.5 87.03 16.5s63.4-5.5 87.15-16.5c23.74-11 41.83-27.07 54.26-48.2 12.43-21.14 18.64-46.9 18.64-77.29v-206.59h-97.36v198.52zm463.06-92.6c0-70.61-41.56-105.91-124.67-105.91h-185.46v341.95h97.36v-130.37h26.42l86.85 130.37h109l-92.42-135.96c55.26-12.46 82.93-45.8 82.93-100.08zm-212.77-31.82h77.89c12.5 0 22.08 2.73 28.73 8.19s9.97 13.34 9.97 23.63-3.17 17.93-9.5 23.39c-6.33 5.46-15.36 8.19-27.07 8.19h-80.02v-63.4zm495.35-74.09v223.48l-94.99-223.48h-141.05v341.94h92.61v-221.13l95.7 221.13h140.33v-341.94h-92.6z"/><path d="M1638.74 319.66l86.54 167.43-86.54 86.54-86.54-86.54 86.54-167.43m0-319.66l-130.39 252.26-86.54 167.43-49.27 95.32 75.87 75.87 86.54 86.54 103.79 103.79 103.79-103.79 86.54-86.54 75.87-75.87-49.27-95.32-86.54-167.43L1638.74 0z" fill="#c84e33"/><path class="cls-2" d="M1354.54 954.16l-125.29 45.6 114.52 114.52 225.35-82.02-214.58-78.1zm722.26-106.68l-67.96-131.47-370.11 134.71-370.1-134.71-67.96 131.47 223.48 81.34-.4.14 214.59 78.11.39-.15 294.97 107.36 114.52-114.52-194.9-70.94 223.48-81.34z"/></g></svg>