<svg id="Layer_2" data-name="Layer 2" xmlns="http://www.w3.org/2000/svg" viewBox="0 0 443.48 120.79"><defs><style>.cls-1{fill:#d46335}.cls-2{fill:#006564}</style></defs><g id="Layer_1-2" data-name="Layer 1"><path class="cls-2" d="M197.92 50.99c0 10.9-10.07 14.34-17.21 14.34-13.64 0-18.8-7.97-19.7-15.55h10.96c1.02 3.7 3 5.42 8.67 5.42 4.4 0 6.37-1.4 6.37-3.76 0-2.61-2.68-2.8-10.14-4.4-7.27-1.53-14.73-4.21-14.73-13.45 0-9.82 8.73-14.53 17.21-14.53 12.62 0 17.4 7.08 18.17 14.79h-10.96c-.64-2.61-2.1-4.65-7.2-4.65s-6.31 1.98-6.31 3.89c0 2.1 2.04 2.36 6.44 3.32 12.49 2.68 18.42 5.48 18.42 14.6zm18.75-31.1h13.64l16.19 44.62h-11.47l-3.19-9.24h-16.7l-3.19 9.24h-11.48l16.19-44.62zm11.6 25.05l-4.78-13.9-4.78 13.9h9.56zm55.01-14.73h-19.89v7.08h18.1v10.33h-18.1v16.89h-10.84V19.89h30.73v10.33zm37.42 0h-19.89v6.63h18.1v10.33h-18.1v7.01h19.89v10.33h-30.73V19.89h30.73v10.33zM195.5 85.67h-12.18v34.3h-10.84v-34.3h-12.11V75.34h35.12v10.33zm50.81 11.98c0 13.13-10.13 23.14-23.33 23.14s-23.33-10.01-23.33-23.14 10.14-23.14 23.33-23.14 23.33 10.01 23.33 23.14zm-35.7 0c0 7.46 5.23 12.81 12.37 12.81s12.37-5.35 12.37-12.81-5.23-12.81-12.37-12.81-12.37 5.35-12.37 12.81zm61.84-22.31h20.14c7.78 0 13.7 3.83 13.7 11.73 0 4.34-1.85 6.95-5.23 8.73 4.59 1.66 6.76 6.05 6.76 11.09 0 8.41-6.31 13.07-15.23 13.07h-20.14V75.34zm19.12 17.02c2.42 0 3.76-1.02 3.76-3.38 0-2.74-1.59-3.31-4.21-3.31h-7.84v6.69h8.29zm.76 17.27c3.63 0 4.53-1.4 4.53-3.7 0-2.48-.89-3.7-4.53-3.7h-9.05v7.39h9.05zm59.8-34.29l-.06 26.39c0 12.69-8.03 19.06-18.74 19.06s-18.74-6.37-18.74-19.06l-.06-26.39h11.03v25.75c0 7.01 3.12 9.37 7.78 9.37s7.78-2.36 7.78-9.37V75.34h11.03zm8.61 0h19.89c9.43 0 15.3 5.61 15.3 14.92 0 7.14-3.44 11.41-8.92 13.2l11.73 16.51h-13.26l-10.52-15.49h-3.38v15.49h-10.84V75.35zm18.67 19.63c3.76 0 5.55-1.53 5.55-4.59s-1.91-4.72-5.55-4.72h-7.84v9.31h7.84zm54.06 8.48l-.83-9.44V75.33h10.84v44.62h-12.3l-16.77-28.11.89 9.43v18.68h-10.84V75.33h12.3l16.7 28.11z"/><path class="cls-1" d="M99.73 56.7l16.96-16.96-19.84-19.83-30.98 30.98-30.98-30.98-19.84 19.83L32.01 56.7h67.72z"/><path class="cls-2" d="M131.74 56.7H0v28.05h21.38L3.87 97.02 19.96 120l45.91-32.15L111.78 120l16.09-22.98-17.51-12.27h21.38V56.7z"/><path class="cls-1" transform="rotate(-45 65.874 19.904)" d="M51.79 5.83h28.15v28.15H51.79z"/></g></svg>