<svg data-name="Layer 2" xmlns="http://www.w3.org/2000/svg" viewBox="0 0 876.12 1114.28"><g data-name="Layer 1"><path d="M438.06 319.66l86.54 167.43-86.54 86.54-86.54-86.54 86.54-167.43m0-319.66L307.67 252.26l-86.54 167.43-49.27 95.32 75.87 75.87 86.54 86.54 103.79 103.79 103.79-103.79 86.54-86.54 75.87-75.87-49.27-95.32-86.54-167.43L438.06 0z" fill="#c84e33"/><path d="M153.87 954.16l-125.3 45.6 114.53 114.52 225.35-82.02-214.58-78.1zm722.25-106.68l-67.95-131.47-370.11 134.71-370.1-134.71L0 847.48l223.48 81.34-.4.14 214.59 78.11.39-.15 294.97 107.36 114.52-114.52-194.91-70.94 223.48-81.34z" fill="#272727"/></g></svg>