<?xml version="1.0" encoding="UTF-8"?>
<svg id="Layer_2" data-name="Layer 2" xmlns="http://www.w3.org/2000/svg" viewBox="0 0 876.12 1114.28">
  <defs>
    <style>
      .cls-1 {
        fill: #c84e33;
      }

      .cls-2 {
        fill: #272727;
      }
    </style>
  </defs>
  <g id="Layer_1-2" data-name="Layer 1">
    <g>
      <path class="cls-1" d="M438.06,319.66l86.54,167.43-86.54,86.54-86.54-86.54,86.54-167.43M438.06,0l-130.39,252.26-86.54,167.43-49.27,95.32,75.87,75.87,86.54,86.54,103.79,103.79,103.79-103.79,86.54-86.54,75.87-75.87-49.27-95.32-86.54-167.43L438.06,0h0Z"/>
      <polygon class="cls-2" points="808.17 716.01 438.06 850.72 67.96 716.01 0 847.48 223.48 928.82 28.57 999.76 143.1 1114.28 438.06 1006.92 733.03 1114.28 847.55 999.76 652.64 928.82 876.12 847.48 808.17 716.01"/>
    </g>
  </g>
</svg>