<?xml version="1.0" encoding="UTF-8"?>
<svg id="Layer_2" data-name="Layer 2" xmlns="http://www.w3.org/2000/svg" viewBox="0 0 5550.61 1114.28">
  <defs>
    <style>
      .cls-1 {
        fill: #c84e33;
      }

      .cls-2 {
        fill: #272727;
      }
    </style>
  </defs>
  <g id="Layer_1-2" data-name="Layer 1">
    <g>
      <g>
        <path class="cls-2" d="M1450.71,602.14c-20.4-9.73-41.48-16.47-63.22-20.2l-41.01-7.77c-23.41-4.14-42.56-9.58-57.48-16.31-14.91-6.73-22.37-16.93-22.37-30.6,0-7.25,2.18-14.08,6.52-20.5,4.35-6.42,11.34-11.7,20.97-15.84,9.63-4.14,22.42-6.21,38.37-6.21,17.19,0,30.7,2.49,40.54,7.46,9.84,4.97,17.19,11.8,22.06,20.5,4.86,8.7,8.23,18.95,10.1,30.76l111.22-23.3c-5.39-27.34-16.98-50.38-34.8-69.13-17.82-18.74-40.08-32.93-66.8-42.56-26.72-9.63-56.23-14.45-88.54-14.45-35,0-65.92,5.54-92.74,16.62-26.83,11.08-47.74,27.08-62.76,48-15.02,20.92-22.53,46.19-22.53,75.8,0,23.2,4.4,42.56,13.2,58.1,8.8,15.53,20.5,28.17,35.11,37.9,14.6,9.74,30.65,17.3,48.16,22.68,17.5,5.39,34.95,9.53,52.35,12.43l39.77,7.15c18.64,3.32,33.91,8.91,45.83,16.78,11.91,7.87,17.86,18.75,17.86,32.62,0,7.46-2.02,14.66-6.06,21.59-4.04,6.94-11.24,12.63-21.59,17.09-10.36,4.46-25.06,6.68-44.12,6.68-27.34,0-48.26-5.75-62.76-17.24-14.5-11.5-22.68-29.57-24.54-54.22l-113.71,22.99c5.17,32.31,17.6,58.72,37.28,79.22,19.67,20.5,44.06,35.63,73.16,45.36,29.1,9.73,60.22,14.6,93.36,14.6,36.45,0,68.86-5.44,97.24-16.31,28.37-10.87,50.74-26.98,67.11-48.31,16.36-21.33,24.54-47.64,24.54-78.91,0-29.2-6.52-52.81-19.57-70.83-13.05-18.02-29.78-31.89-50.17-41.63Z"/>
        <path class="cls-2" d="M1702.83,402.37l-164.66,447.38h120.85l35.4-112.47h164.51l35.58,112.47h120.86l-164.04-447.38h-148.51ZM1722.58,647.81l53.88-171.19,54.16,171.19h-108.04Z"/>
        <polygon class="cls-2" points="2057.94 849.75 2170.09 849.75 2170.09 672.66 2352.15 672.66 2352.15 577.28 2170.09 577.28 2170.09 497.74 2380.42 497.74 2380.42 402.37 2057.94 402.37 2057.94 849.75"/>
        <polygon class="cls-2" points="2547.88 660.85 2725.28 660.85 2725.28 570.44 2547.88 570.44 2547.88 497.74 2760.08 497.74 2760.08 402.37 2435.72 402.37 2435.72 849.75 2764.43 849.75 2764.43 754.37 2547.88 754.37 2547.88 660.85"/>
        <polygon class="cls-2" points="2808.85 497.74 2966.37 497.74 2966.37 849.75 3078.52 849.75 3078.52 497.74 3236.35 497.74 3236.35 402.37 2808.85 402.37 2808.85 497.74"/>
        <path class="cls-2" d="M3592.38,422.25c-33.76-18.84-73.84-28.27-120.23-28.27s-86.48,9.43-120.23,28.27c-33.76,18.85-59.76,45.57-77.98,80.16-18.23,34.59-27.34,75.81-27.34,123.65s9.11,88.85,27.34,123.65c18.22,34.8,44.22,61.57,77.98,80.31,33.75,18.75,73.84,28.12,120.23,28.12s86.47-9.37,120.23-28.12c33.76-18.74,59.76-45.52,77.98-80.31,18.22-34.8,27.34-76.01,27.34-123.65s-9.12-89.06-27.34-123.65c-18.23-34.59-44.22-61.31-77.98-80.16ZM3567.84,699.84c-8.49,20.4-20.81,35.99-36.97,46.76-16.16,10.77-35.73,16.16-58.72,16.16s-42.56-5.38-58.72-16.16c-16.16-10.77-28.53-26.35-37.13-46.76-8.6-20.4-12.89-45-12.89-73.79s4.3-53.64,12.89-73.94c8.59-20.3,20.97-35.83,37.13-46.6,16.16-10.77,35.73-16.16,58.72-16.16s42.56,5.39,58.72,16.16c16.16,10.77,28.47,26.31,36.97,46.6,8.49,20.3,12.74,44.95,12.74,73.94s-4.24,53.39-12.74,73.79Z"/>
        <path class="cls-2" d="M4038.48,611.67c12.46-2.26,25-6.36,37.64-12.49,13.87-6.73,25.47-16.98,34.8-30.76,9.32-13.77,13.98-32.47,13.98-56.08,0-35.62-12.84-62.86-38.52-81.71-25.69-18.84-65.55-28.27-119.61-28.27h-209.4v447.38h219.34c28.79,0,55.45-3.78,80-11.34,24.54-7.56,44.27-20.4,59.19-38.52,14.91-18.12,22.37-42.92,22.37-74.41,0-33.34-9.01-59.44-27.03-78.29-17.49-18.29-41.78-30.09-72.74-35.51ZM3869.51,488.43h89.16c20.71,0,35,3.88,42.87,11.65,7.87,7.77,11.8,17.97,11.8,30.6,0,14.71-4.66,25.43-13.98,32.15-9.32,6.73-23.1,10.1-41.32,10.1h-88.54v-84.5ZM4018.95,736.5c-3.94,8.39-11.08,15.02-21.44,19.88-10.36,4.87-25.27,7.3-44.74,7.3h-83.26v-110.29h78.91c20.09,0,35.67,2.44,46.76,7.3,11.08,4.87,18.8,11.5,23.14,19.89,4.35,8.39,6.52,17.76,6.52,28.12s-1.97,19.42-5.9,27.81Z"/>
        <path class="cls-2" d="M4490.25,668.31c0,32.11-7.56,55.87-22.68,71.3-15.12,15.43-37.28,23.15-66.48,23.15s-51.06-7.46-66.18-22.37c-15.12-14.91-22.68-36.66-22.68-65.24v-272.78h-112.16v275.26c0,38.32,7.87,70.94,23.61,97.86,15.74,26.93,38.63,47.43,68.66,61.51,30.03,14.08,66.28,21.13,108.74,21.13s79.27-7.04,109.2-21.13c29.93-14.08,52.76-34.59,68.5-61.51,15.74-26.92,23.61-59.54,23.61-97.86v-275.26h-112.16v265.94Z"/>
        <path class="cls-2" d="M5069.67,536.58c0-89.48-53.74-134.21-161.24-134.21h-227.42v447.38h112.16v-179.26h47.32l113.3,179.26h125.82l-119.36-185.38c72.93-14.98,109.42-57.56,109.42-127.79ZM4793.17,488.43h104.7c19.67,0,34.74,4.15,45.2,12.43,10.45,8.29,15.69,20.2,15.69,35.73s-5.08,27.39-15.23,35.57c-10.15,8.18-24.65,12.27-43.49,12.27h-106.87v-96Z"/>
        <polygon class="cls-2" points="5443.73 402.37 5443.73 719.55 5297.09 402.37 5135.23 402.37 5135.23 849.75 5242.1 849.75 5242.1 533.4 5391.23 849.75 5550.61 849.75 5550.61 402.37 5443.73 402.37"/>
      </g>
      <g>
        <path class="cls-1" d="M438.06,319.66l86.54,167.43-86.54,86.54-86.54-86.54,86.54-167.43M438.06,0l-130.39,252.26-86.54,167.43-49.27,95.32,75.87,75.87,86.54,86.54,103.79,103.79,103.79-103.79,86.54-86.54,75.87-75.87-49.27-95.32-86.54-167.43L438.06,0h0Z"/>
        <g>
          <polygon class="cls-2" points="153.87 954.16 28.57 999.76 143.1 1114.28 368.45 1032.26 153.87 954.16"/>
          <polygon class="cls-2" points="876.12 847.48 808.17 716.01 438.06 850.72 67.96 716.01 0 847.48 223.48 928.82 223.08 928.96 437.67 1007.07 438.06 1006.92 733.03 1114.28 847.55 999.76 652.64 928.82 876.12 847.48"/>
        </g>
      </g>
    </g>
  </g>
</svg>