<svg data-name="Layer 2" xmlns="http://www.w3.org/2000/svg" viewBox="0 0 64.88 39.15"><path d="M48.65 9.15c-4.64 0-7.06-1.54-9.2-2.89C37.54 5.05 35.89 4 32.43 4s-5.11 1.05-7.02 2.26c-2.13 1.36-4.55 2.89-9.2 2.89s-7.06-1.54-9.2-2.89C5.1 5.05 3.45 4-.01 4V0c4.64 0 7.06 1.54 9.19 2.89 1.91 1.21 3.56 2.26 7.02 2.26s5.11-1.05 7.02-2.26C25.35 1.54 27.77 0 32.42 0s7.06 1.54 9.2 2.89c1.91 1.21 3.56 2.26 7.02 2.26s5.11-1.05 7.02-2.26C57.79 1.54 60.21 0 64.86 0v4c-3.47 0-5.11 1.05-7.02 2.26-2.13 1.35-4.55 2.89-9.2 2.89zm0 15c-4.64 0-7.06-1.54-9.2-2.89-1.91-1.21-3.56-2.26-7.02-2.26s-5.11 1.05-7.02 2.26c-2.13 1.36-4.55 2.89-9.2 2.89s-7.06-1.54-9.2-2.89C5.1 20.05 3.45 19-.01 19v-4c4.64 0 7.06 1.54 9.19 2.89 1.91 1.21 3.56 2.26 7.02 2.26s5.11-1.05 7.02-2.26c2.13-1.35 4.55-2.89 9.2-2.89s7.06 1.54 9.2 2.89c1.91 1.21 3.56 2.26 7.02 2.26s5.11-1.05 7.02-2.26c2.13-1.35 4.55-2.89 9.2-2.89v4c-3.47 0-5.11 1.05-7.02 2.26-2.13 1.35-4.55 2.89-9.2 2.89zm0 15c-4.64 0-7.06-1.54-9.2-2.89-1.91-1.21-3.56-2.26-7.02-2.26s-5.11 1.05-7.02 2.26c-2.13 1.36-4.55 2.89-9.2 2.89s-7.06-1.54-9.2-2.89C5.1 35.05 3.45 34-.01 34v-4c4.64 0 7.06 1.54 9.19 2.89 1.91 1.21 3.56 2.26 7.02 2.26s5.11-1.05 7.02-2.26c2.13-1.35 4.55-2.89 9.2-2.89s7.06 1.54 9.2 2.89c1.91 1.21 3.56 2.26 7.02 2.26s5.11-1.05 7.02-2.26c2.13-1.35 4.55-2.89 9.2-2.89v4c-3.47 0-5.11 1.05-7.02 2.26-2.13 1.35-4.55 2.89-9.2 2.89z" fill="#6b6b6b" data-name="Layer 1"/></svg>