<svg data-name="Layer 2" xmlns="http://www.w3.org/2000/svg" viewBox="0 0 64.88 39.22"><path d="M48.65 39.22c-4.64 0-7.06-1.54-9.2-2.89-1.91-1.21-3.56-2.26-7.02-2.26s-5.11 1.05-7.02 2.26c-2.13 1.36-4.55 2.89-9.2 2.89s-7.06-1.54-9.2-2.89c-1.91-1.21-3.56-2.26-7.02-2.26v-4c4.64 0 7.06 1.54 9.19 2.89 1.91 1.21 3.56 2.26 7.02 2.26s5.11-1.05 7.02-2.26c2.13-1.35 4.55-2.89 9.2-2.89s7.06 1.54 9.2 2.89c1.91 1.21 3.56 2.26 7.02 2.26s5.11-1.05 7.02-2.26c2.13-1.35 4.55-2.89 9.2-2.89v4c-3.47 0-5.11 1.05-7.02 2.26-2.13 1.35-4.55 2.89-9.2 2.89zm7.8-32.25c2.55 3.92 4.41 7.54 4.42 8.83 0 2.44-1.98 4.42-4.42 4.42s-4.42-1.98-4.42-4.42c.02-1.29 1.87-4.91 4.42-8.83m0-6.97s-8.42 11.14-8.42 15.8 3.77 8.42 8.42 8.42 8.42-3.77 8.42-8.42S56.45 0 56.45 0zm-8.33 5.2c-3.09-.11-4.69-1.09-6.49-2.24C39.5 1.6 37.08.07 32.43.07s-7.06 1.54-9.2 2.89c-1.91 1.21-3.56 2.26-7.02 2.26S11.1 4.17 9.19 2.96C7.06 1.6 4.64.07 0 .07v4c3.46 0 5.11 1.05 7.02 2.26 2.13 1.36 4.55 2.89 9.2 2.89s7.06-1.54 9.2-2.89c1.91-1.21 3.56-2.26 7.02-2.26s5.11 1.05 7.02 2.26c1.69 1.07 3.58 2.25 6.6 2.69.62-1.29 1.33-2.58 2.07-3.83zm-3.5 14.36c-1.11-.42-2.02-.99-2.99-1.6-2.13-1.35-4.55-2.89-9.2-2.89s-7.06 1.54-9.2 2.89c-1.91 1.21-3.56 2.26-7.02 2.26s-5.11-1.05-7.02-2.26C7.06 16.61 4.64 15.07 0 15.07v4c3.46 0 5.11 1.05 7.02 2.26 2.13 1.36 4.55 2.89 9.2 2.89s7.06-1.54 9.2-2.89c1.91-1.21 3.56-2.26 7.02-2.26s5.11 1.05 7.02 2.26c1.91 1.21 4.07 2.56 7.84 2.83-1.2-1.31-2.13-2.87-2.68-4.6z" fill="#6b6b6b" data-name="Layer 1"/></svg>