<svg data-name="Layer 2" xmlns="http://www.w3.org/2000/svg" viewBox="0 0 64.38 55.15"><path d="M48.28 55.15c-5.19 0-7.97-1.78-10.2-3.21-1.83-1.17-3.04-1.94-5.89-1.94s-4.06.77-5.89 1.94c-2.23 1.43-5.01 3.21-10.2 3.21s-7.97-1.78-10.2-3.21C4.07 50.77 2.86 50 .01 50v-8c5.19 0 7.97 1.78 10.2 3.21 1.83 1.17 3.04 1.94 5.89 1.94s4.06-.77 5.89-1.94C24.22 43.78 27 42 32.19 42s7.97 1.78 10.2 3.21c1.83 1.17 3.04 1.94 5.89 1.94s4.06-.77 5.89-1.94C56.4 43.78 59.18 42 64.37 42v8c-2.85 0-4.06.77-5.89 1.94-2.23 1.43-5.01 3.21-10.2 3.21zM34.11 9.94c-.6-.06-1.24-.09-1.92-.09-5.19 0-7.97 1.78-10.2 3.21C20.16 14.23 18.95 15 16.1 15s-4.06-.77-5.89-1.94C7.98 11.63 5.2 9.85.01 9.85v8c2.85 0 4.06.77 5.89 1.94C8.13 21.22 10.91 23 16.1 23s7.97-1.78 10.2-3.21c1.4-.89 2.43-1.55 4.11-1.82.86-2.92 2.25-5.68 3.7-8.04zm-4.48 16.11c-3.6.47-5.82 1.86-7.65 3.03-1.83 1.17-3.04 1.94-5.89 1.94s-4.06-.77-5.89-1.94C7.97 27.65 5.19 25.87 0 25.87v8c2.85 0 4.06.77 5.89 1.94 2.23 1.43 5.01 3.21 10.2 3.21s7.97-1.78 10.2-3.21c1.79-1.15 3-1.91 5.73-1.94-1.3-2.4-2.11-5.05-2.39-7.83zm34.55-3.62C63.06 15.74 56.3 5.92 51.73.9c-.34-.37-.62-.72-1.1-.91h-.61c-.48.19-.76.54-1.1.91-4.57 5.01-11.33 14.83-12.45 21.53-1.22 7.26 3.4 14.32 10.56 16.01 9.83 2.31 18.81-6.06 17.15-16.01zM50.33 30.8c-.52 0-1.06-.06-1.6-.19-3.47-.82-5.71-4.24-5.12-7.76.54-3.24 3.82-8 6.03-10.43.16-.18.3-.35.53-.44h.29c.23.09.37.26.53.44 2.22 2.43 5.49 7.19 6.03 10.43.72 4.27-2.62 7.95-6.71 7.95z" fill="#bc3a26" data-name="Layer 1"/></svg>