<svg id="Layer_2" data-name="Layer 2" xmlns="http://www.w3.org/2000/svg" viewBox="0 0 57.43 57.43"><defs><style>.cls-1{fill:#bc3a26}</style></defs><g id="Layer_1-2" data-name="Layer 1"><path class="cls-1" d="M32.71 47.69h-8V40.8h8v6.89zm0-12.48h-8V20.78h8v14.43z"/><path class="cls-1" d="M52.15 57.43H5.27c-1.88 0-3.63-1.13-4.57-2.96-.94-1.83-.94-4.1 0-5.92L24.14 2.96C25.08 1.13 26.83 0 28.71 0s3.63 1.13 4.57 2.96l23.44 45.58c.94 1.83.94 4.09 0 5.92s-2.69 2.96-4.57 2.96zM6.38 52.21zm1.1-2.14h42.47L28.71 8.78 7.48 50.07z"/></g></svg>