<svg data-name="Layer 2" xmlns="http://www.w3.org/2000/svg" viewBox="0 0 117.15 117.15"><path d="M58.57 0C26.23 0 0 26.22 0 58.57s26.23 58.57 58.57 58.57 58.57-26.23 58.57-58.57S90.93 0 58.57 0zM25.31 41.53h40.85c1.39 0 2.52-1.13 2.52-2.52s-1.13-2.53-2.52-2.53-2.53 1.13-2.53 2.53h-8c0-5.8 4.72-10.53 10.53-10.53s10.52 4.72 10.52 10.53-4.72 10.52-10.52 10.52H25.31v-8zm30.66 47.15c-5.8 0-10.53-4.72-10.53-10.53h8c0 1.39 1.13 2.53 2.53 2.53s2.52-1.13 2.52-2.53-1.13-2.52-2.52-2.52H25.31v-8h30.66c5.8 0 10.52 4.72 10.52 10.52s-4.72 10.53-10.52 10.53zm25.35-13.06c-5.8 0-10.52-4.72-10.52-10.52h8c0 1.39 1.13 2.52 2.52 2.52s2.52-1.13 2.52-2.52-1.13-2.52-2.52-2.52H25.31v-8h56.01c5.8 0 10.52 4.72 10.52 10.52s-4.72 10.52-10.52 10.52z" fill="#ca9b4f" data-name="Layer 1"/></svg>