<svg data-name="Layer 2" xmlns="http://www.w3.org/2000/svg" viewBox="0 0 117.15 117.15"><path d="M58.57 0C26.22 0 0 26.22 0 58.57s26.22 58.57 58.57 58.57 58.57-26.22 58.57-58.57S90.93 0 58.57 0zm2.35 36.54c1.25-5.3 6.47-8.71 11.84-7.81 4.95.83 12.21 5.83 15.92 9.21.27.25.53.46.67.81v.45c-.14.36-.4.56-.67.81-3.71 3.38-10.97 8.38-15.92 9.21-5.81.97-10.87-2.97-11.92-8.25h14.57v-4H60.84c.03-.15.04-.29.07-.44zm-8.93-7.96c2.26 0 4.09 1.83 4.09 4.09s-1.83 4.09-4.09 4.09-4.09-1.83-4.09-4.09 1.83-4.09 4.09-4.09zm-.25 12.62c2.26 0 4.09 1.83 4.09 4.09s-1.83 4.09-4.09 4.09-4.09-1.83-4.09-4.09 1.83-4.09 4.09-4.09zM40.57 28.58c2.26 0 4.09 1.83 4.09 4.09s-1.83 4.09-4.09 4.09-4.09-1.83-4.09-4.09 1.83-4.09 4.09-4.09zm0 12.62c2.26 0 4.09 1.83 4.09 4.09s-1.83 4.09-4.09 4.09-4.09-1.83-4.09-4.09 1.83-4.09 4.09-4.09zM29.4 28.58c2.26 0 4.09 1.83 4.09 4.09s-1.83 4.09-4.09 4.09-4.09-1.83-4.09-4.09 1.83-4.09 4.09-4.09zm0 12.62c2.26 0 4.09 1.83 4.09 4.09s-1.83 4.09-4.09 4.09-4.09-1.83-4.09-4.09 1.83-4.09 4.09-4.09zm26.57 47.36h-15.4v-8h15.4c1.39 0 2.52-1.13 2.52-2.53s-1.13-2.52-2.52-2.52H25.31v-8h30.66c5.8 0 10.52 4.72 10.52 10.52s-4.72 10.53-10.52 10.53zm25.35-13.05H69.76v-8h11.56c1.39 0 2.52-1.13 2.52-2.52s-1.13-2.52-2.52-2.52H25.31v-8h56.01c5.8 0 10.52 4.72 10.52 10.52s-4.72 10.52-10.52 10.52z" fill="#3d69b3" data-name="Layer 1"/></svg>