<svg id="Layer_2" data-name="Layer 2" xmlns="http://www.w3.org/2000/svg" viewBox="0 0 66.53 60.2"><defs><style>.cls-1{fill:#bc3a26}</style></defs><g id="Layer_1-2" data-name="Layer 1"><path class="cls-1" d="M40.85 21.05H0v-8h40.85c1.39 0 2.52-1.13 2.52-2.52S42.24 8 40.85 8s-2.53 1.13-2.53 2.53h-8C30.32 4.73 35.04 0 40.85 0s10.52 4.72 10.52 10.53-4.72 10.52-10.52 10.52zm15.16 26.1c-5.8 0-10.52-4.72-10.52-10.52h8c0 1.39 1.13 2.52 2.52 2.52s2.52-1.13 2.52-2.52-1.13-2.52-2.52-2.52H0v-8h56.01c5.8 0 10.52 4.72 10.52 10.52s-4.72 10.52-10.52 10.52z"/><path class="cls-1" d="M30.66 60.2c-5.8 0-10.53-4.72-10.53-10.53h8c0 1.39 1.13 2.53 2.53 2.53s2.52-1.13 2.52-2.53-1.13-2.52-2.52-2.52H0v-8h30.66c5.8 0 10.52 4.72 10.52 10.52S36.46 60.2 30.66 60.2z"/></g></svg>