<svg data-name="Layer 2" xmlns="http://www.w3.org/2000/svg" viewBox="0 0 57.44 57.44"><path d="M54.74 16.59c-3.24-6.95-9-12.22-16.2-14.85s-15-2.28-21.95.96c-6.96 3.25-12.23 9-14.86 16.21-5.41 14.88 2.28 31.39 17.16 36.8 3.23 1.18 6.54 1.73 9.79 1.73 11.73 0 22.77-7.25 27.01-18.89 2.62-7.21 2.28-15-.96-21.95zM21.46 48.66c-10.99-4-16.68-16.2-12.68-27.19 1.07-2.95 2.77-5.56 4.92-7.71l23.94 34.2c-4.92 2.29-10.7 2.7-16.19.71zm27.19-12.68a21.125 21.125 0 01-4.86 7.66L19.85 9.46a21.1 21.1 0 018.85-1.95c2.45 0 4.9.43 7.27 1.29 5.32 1.94 9.57 5.83 11.97 10.97 2.39 5.14 2.65 10.9.71 16.22z" fill="#bc3a26" data-name="Layer 1"/></svg>