<svg id="Layer_2" data-name="Layer 2" xmlns="http://www.w3.org/2000/svg" viewBox="0 0 66.53 59.98"><defs><style>.cls-1{fill:#bc3a26}</style></defs><g id="Layer_1-2" data-name="Layer 1"><path class="cls-1" d="M56.01 46.93H44.45v-8h11.56c1.39 0 2.52-1.13 2.52-2.52s-1.13-2.52-2.52-2.52H0v-8h56.01c5.8 0 10.52 4.72 10.52 10.52s-4.72 10.52-10.52 10.52z"/><path class="cls-1" d="M30.66 59.98h-15.4v-8h15.4c1.39 0 2.52-1.13 2.52-2.53s-1.13-2.52-2.52-2.52H0v-8h30.66c5.8 0 10.52 4.72 10.52 10.52s-4.72 10.53-10.52 10.53zM63.37 9.35C59.66 5.97 52.4.97 47.45.14c-5.37-.9-10.59 2.51-11.84 7.81-.03.15-.05.29-.07.44h14.57v4H35.54c1.04 5.28 6.11 9.22 11.92 8.25 4.95-.83 12.21-5.83 15.92-9.21.27-.25.53-.46.67-.81v-.45c-.14-.36-.4-.56-.67-.81z"/><circle class="cls-1" cx="4.09" cy="4.09" r="4.09"/><circle class="cls-1" cx="15.26" cy="4.09" r="4.09"/><circle class="cls-1" cx="26.68" cy="4.09" r="4.09"/><circle class="cls-1" cx="4.09" cy="16.7" r="4.09"/><circle class="cls-1" cx="15.26" cy="16.7" r="4.09"/><circle class="cls-1" cx="26.43" cy="16.7" r="4.09"/></g></svg>