<svg data-name="Layer 2" xmlns="http://www.w3.org/2000/svg" viewBox="0 0 57.45 57.45"><path d="M54.75 16.59c-3.24-6.95-9-12.22-16.2-14.85-7.21-2.62-15-2.28-21.95.96-6.96 3.25-12.23 9-14.85 16.21-2.62 7.21-2.28 15 .96 21.95 3.24 6.95 9 12.22 16.2 14.85 3.2 1.17 6.53 1.75 9.84 1.75 4.14 0 8.26-.91 12.12-2.71 6.95-3.24 12.22-8.99 14.85-16.2 2.62-7.21 2.28-15-.96-21.95zM21.47 48.66A21.097 21.097 0 019.5 37.69c-2.39-5.14-2.65-10.9-.71-16.22 1.07-2.95 2.77-5.56 4.92-7.71l23.95 34.2a21.124 21.124 0 01-16.2.7zm27.19-12.68a21.223 21.223 0 01-4.86 7.66L19.86 9.46a21.1 21.1 0 018.85-1.95c2.45 0 4.9.43 7.27 1.29 5.32 1.94 9.57 5.83 11.97 10.97 2.39 5.14 2.65 10.9.71 16.22z" fill="#272727" data-name="Layer 1"/></svg>