<svg data-name="Layer 2" xmlns="http://www.w3.org/2000/svg" viewBox="0 0 43.36 59.91"><path d="M26.77.6C11.61-2.97-2.26 9.96.31 25.3c1.73 10.33 12.16 25.47 19.21 33.21.52.57.96 1.1 1.7 1.4h.94c.74-.3 1.18-.83 1.7-1.4 7.05-7.74 17.48-22.88 19.21-33.21C44.95 14.1 37.83 3.2 26.78.6zm7.78 25.83a13.611 13.611 0 01-7.1 7.74 13.639 13.639 0 01-10.49.46 13.628 13.628 0 01-7.74-7.09 13.639 13.639 0 01-.46-10.49c2.03-5.57 7.3-9.03 12.91-9.03 1.55 0 3.14.27 4.68.83 3.44 1.25 6.19 3.77 7.74 7.09 1.55 3.32 1.71 7.05.46 10.49z" fill="#f2ede9" data-name="Layer 1"/></svg>