<?xml version="1.0" encoding="UTF-8"?>
<svg id="Layer_2" data-name="Layer 2" xmlns="http://www.w3.org/2000/svg" viewBox="0 0 64.88 39.15">
  <defs>
    <style>
      .cls-1 {
        fill: #6b6b6b;
      }
    </style>
  </defs>
  <g id="Layer_1-2" data-name="Layer 1">
    <g>
      <path class="cls-1" d="M48.65,9.15c-4.64,0-7.06-1.54-9.2-2.89-1.91-1.21-3.56-2.26-7.02-2.26s-5.11,1.05-7.02,2.26c-2.13,1.36-4.55,2.89-9.2,2.89s-7.06-1.54-9.2-2.89c-1.91-1.21-3.56-2.26-7.02-2.26V0c4.64,0,7.06,1.54,9.19,2.89,1.91,1.21,3.56,2.26,7.02,2.26s5.11-1.05,7.02-2.26c2.13-1.35,4.55-2.89,9.2-2.89s7.06,1.54,9.2,2.89c1.91,1.21,3.56,2.26,7.02,2.26s5.11-1.05,7.02-2.26c2.13-1.35,4.55-2.89,9.2-2.89v4c-3.47,0-5.11,1.05-7.02,2.26-2.13,1.35-4.55,2.89-9.2,2.89Z"/>
      <path class="cls-1" d="M48.65,24.15c-4.64,0-7.06-1.54-9.2-2.89-1.91-1.21-3.56-2.26-7.02-2.26s-5.11,1.05-7.02,2.26c-2.13,1.36-4.55,2.89-9.2,2.89s-7.06-1.54-9.2-2.89c-1.91-1.21-3.56-2.26-7.02-2.26v-4c4.64,0,7.06,1.54,9.19,2.89,1.91,1.21,3.56,2.26,7.02,2.26s5.11-1.05,7.02-2.26c2.13-1.35,4.55-2.89,9.2-2.89s7.06,1.54,9.2,2.89c1.91,1.21,3.56,2.26,7.02,2.26s5.11-1.05,7.02-2.26c2.13-1.35,4.55-2.89,9.2-2.89v4c-3.47,0-5.11,1.05-7.02,2.26-2.13,1.35-4.55,2.89-9.2,2.89Z"/>
      <path class="cls-1" d="M48.65,39.15c-4.64,0-7.06-1.54-9.2-2.89-1.91-1.21-3.56-2.26-7.02-2.26s-5.11,1.05-7.02,2.26c-2.13,1.36-4.55,2.89-9.2,2.89s-7.06-1.54-9.2-2.89c-1.91-1.21-3.56-2.26-7.02-2.26v-4c4.64,0,7.06,1.54,9.19,2.89,1.91,1.21,3.56,2.26,7.02,2.26s5.11-1.05,7.02-2.26c2.13-1.35,4.55-2.89,9.2-2.89s7.06,1.54,9.2,2.89c1.91,1.21,3.56,2.26,7.02,2.26s5.11-1.05,7.02-2.26c2.13-1.35,4.55-2.89,9.2-2.89v4c-3.47,0-5.11,1.05-7.02,2.26-2.13,1.35-4.55,2.89-9.2,2.89Z"/>
    </g>
  </g>
</svg>