<?xml version="1.0" encoding="UTF-8"?>
<svg id="Layer_2" data-name="Layer 2" xmlns="http://www.w3.org/2000/svg" viewBox="0 0 66.53 60.2">
  <defs>
    <style>
      .cls-1 {
        fill: #f2ede9;
      }
    </style>
  </defs>
  <g id="Layer_1-2" data-name="Layer 1">
    <g>
      <path class="cls-1" d="M40.85,21.05H0v-8h40.85c1.39,0,2.52-1.13,2.52-2.52s-1.13-2.53-2.52-2.53-2.53,1.13-2.53,2.53h-8c0-5.8,4.72-10.53,10.53-10.53s10.52,4.72,10.52,10.53-4.72,10.52-10.52,10.52Z"/>
      <path class="cls-1" d="M56.01,47.15c-5.8,0-10.52-4.72-10.52-10.52h8c0,1.39,1.13,2.52,2.52,2.52s2.52-1.13,2.52-2.52-1.13-2.52-2.52-2.52H0v-8h56.01c5.8,0,10.52,4.72,10.52,10.52s-4.72,10.52-10.52,10.52Z"/>
      <path class="cls-1" d="M30.66,60.2c-5.8,0-10.53-4.72-10.53-10.53h8c0,1.39,1.13,2.53,2.53,2.53s2.52-1.13,2.52-2.53-1.13-2.52-2.52-2.52H0v-8h30.66c5.8,0,10.52,4.72,10.52,10.52s-4.72,10.53-10.52,10.53Z"/>
    </g>
  </g>
</svg>