<?xml version="1.0" encoding="UTF-8"?>
<svg id="Layer_2" data-name="Layer 2" xmlns="http://www.w3.org/2000/svg" viewBox="0 0 52.48 60.13">
  <defs>
    <style>
      .cls-1 {
        fill: #bc3a26;
      }
    </style>
  </defs>
  <g id="Layer_1-2" data-name="Layer 1">
    <g>
      <path class="cls-1" d="M22.91,45.79c-2.64,0-5.29-.46-7.84-1.39-5.74-2.09-10.33-6.29-12.92-11.83S-.7,20.81,1.39,15.06C5.71,3.2,18.87-2.93,30.73,1.38c5.74,2.09,10.33,6.29,12.92,11.83s2.85,11.76.76,17.5c-2.09,5.74-6.29,10.33-11.83,12.92-3.08,1.43-6.36,2.16-9.66,2.16ZM22.91,8.44c-5.91,0-11.46,3.65-13.6,9.51-1.32,3.63-1.15,7.55.48,11.05,1.63,3.5,4.53,6.15,8.15,7.47,3.63,1.32,7.55,1.15,11.05-.48,3.5-1.63,6.15-4.53,7.47-8.16,1.32-3.63,1.15-7.55-.48-11.05-1.63-3.5-4.53-6.15-8.15-7.47-1.63-.59-3.29-.87-4.93-.87Z"/>
      <path class="cls-1" d="M42.91,41.59c-1.92,2.05-4.16,3.79-6.67,5.19l9.32,13.36,6.91-4.84-9.57-13.71Z"/>
    </g>
  </g>
</svg>