<?xml version="1.0" encoding="UTF-8"?>
<svg id="Layer_2" data-name="Layer 2" xmlns="http://www.w3.org/2000/svg" viewBox="0 0 57.44 57.43">
  <defs>
    <style>
      .cls-1 {
        fill: #fff;
      }
    </style>
  </defs>
  <g id="Layer_1-2" data-name="Layer 1">
    <path class="cls-1" d="M54.74,16.58c-3.24-6.95-9-12.22-16.2-14.85C23.66-3.68,7.15,4.02,1.73,18.89c-5.41,14.88,2.28,31.39,17.16,36.8,3.23,1.18,6.54,1.73,9.79,1.73,11.73,0,22.77-7.25,27.01-18.89,2.62-7.21,2.28-15-.96-21.95ZM21.46,48.65c-10.99-4-16.68-16.2-12.68-27.19,1.09-3,2.8-5.59,4.92-7.71l23.94,34.19c-4.92,2.29-10.7,2.7-16.19.71ZM48.65,35.97c-1.08,2.97-2.77,5.55-4.86,7.66L19.86,9.46c2.76-1.27,5.78-1.96,8.87-1.96,2.4,0,4.85.41,7.23,1.28,5.32,1.94,9.57,5.83,11.97,10.97,2.39,5.14,2.65,10.9.71,16.22Z"/>
  </g>
</svg>