<?xml version="1.0" encoding="UTF-8"?>
<svg id="Layer_2" data-name="Layer 2" xmlns="http://www.w3.org/2000/svg" viewBox="0 0 117.15 117.15">
  <defs>
    <style>
      .cls-1 {
        fill: #ca9b4f;
      }
    </style>
  </defs>
  <g id="Layer_1-2" data-name="Layer 1">
    <path class="cls-1" d="M58.57,0C26.22,0,0,26.22,0,58.57s26.22,58.57,58.57,58.57,58.57-26.22,58.57-58.57S90.93,0,58.57,0ZM60.92,36.54c1.25-5.3,6.47-8.71,11.84-7.81,4.95.83,12.21,5.83,15.92,9.21.27.25.53.46.67.81v.45c-.14.36-.4.56-.67.81-3.71,3.38-10.97,8.38-15.92,9.21-5.81.97-10.87-2.97-11.92-8.25h14.57v-4h-14.57c.03-.15.04-.29.07-.44ZM51.99,28.58c2.26,0,4.09,1.83,4.09,4.09s-1.83,4.09-4.09,4.09-4.09-1.83-4.09-4.09,1.83-4.09,4.09-4.09ZM51.74,41.2c2.26,0,4.09,1.83,4.09,4.09s-1.83,4.09-4.09,4.09-4.09-1.83-4.09-4.09,1.83-4.09,4.09-4.09ZM40.57,28.58c2.26,0,4.09,1.83,4.09,4.09s-1.83,4.09-4.09,4.09-4.09-1.83-4.09-4.09,1.83-4.09,4.09-4.09ZM40.57,41.2c2.26,0,4.09,1.83,4.09,4.09s-1.83,4.09-4.09,4.09-4.09-1.83-4.09-4.09,1.83-4.09,4.09-4.09ZM29.4,28.58c2.26,0,4.09,1.83,4.09,4.09s-1.83,4.09-4.09,4.09-4.09-1.83-4.09-4.09,1.83-4.09,4.09-4.09ZM29.4,41.2c2.26,0,4.09,1.83,4.09,4.09s-1.83,4.09-4.09,4.09-4.09-1.83-4.09-4.09,1.83-4.09,4.09-4.09ZM55.97,88.56h-15.4v-8h15.4c1.39,0,2.52-1.13,2.52-2.53s-1.13-2.52-2.52-2.52h-30.66v-8h30.66c5.8,0,10.52,4.72,10.52,10.52s-4.72,10.53-10.52,10.53ZM81.32,75.51h-11.56v-8h11.56c1.39,0,2.52-1.13,2.52-2.52s-1.13-2.52-2.52-2.52H25.31v-8h56.01c5.8,0,10.52,4.72,10.52,10.52s-4.72,10.52-10.52,10.52Z"/>
  </g>
</svg>