<?xml version="1.0" encoding="UTF-8"?>
<svg id="Layer_2" data-name="Layer 2" xmlns="http://www.w3.org/2000/svg" viewBox="0 0 117.15 117.15">
  <defs>
    <style>
      .cls-1 {
        fill: #bc3a26;
      }
    </style>
  </defs>
  <g id="Layer_1-2" data-name="Layer 1">
    <g>
      <path class="cls-1" d="M58.57,0C26.22,0,0,26.22,0,58.57s26.22,58.57,58.57,58.57,58.58-26.22,58.58-58.57S90.92,0,58.57,0ZM62.85,53.43c1.12-6.69,7.88-16.51,12.45-21.53.34-.37.62-.72,1.1-.91h.61c.48.19.76.54,1.1.91,4.57,5.01,11.33,14.83,12.45,21.53,1.66,9.95-7.32,18.32-17.15,16.01-7.16-1.69-11.78-8.75-10.56-16.01ZM26.39,40.85c5.19,0,7.97,1.78,10.2,3.21,1.83,1.17,3.04,1.94,5.89,1.94s4.06-.77,5.89-1.94c2.23-1.43,5.01-3.21,10.2-3.21.68,0,1.32.03,1.92.09-1.45,2.36-2.84,5.12-3.7,8.04-1.68.26-2.72.92-4.11,1.82-2.23,1.43-5.01,3.21-10.2,3.21s-7.97-1.78-10.2-3.21c-1.83-1.17-3.04-1.94-5.89-1.94v-8ZM26.39,56.87c5.19,0,7.97,1.78,10.2,3.21,1.83,1.17,3.04,1.94,5.89,1.94s4.06-.77,5.89-1.94c1.83-1.17,4.05-2.56,7.65-3.03.28,2.78,1.1,5.43,2.39,7.83-2.73.03-3.94.79-5.73,1.94-2.23,1.43-5.01,3.21-10.2,3.21s-7.97-1.78-10.2-3.21c-1.83-1.17-3.04-1.94-5.89-1.94v-8ZM90.76,81c-2.85,0-4.06.77-5.89,1.94-2.23,1.43-5.01,3.21-10.2,3.21s-7.97-1.78-10.2-3.21c-1.83-1.17-3.04-1.94-5.89-1.94s-4.06.77-5.89,1.94c-2.23,1.43-5.01,3.21-10.2,3.21s-7.97-1.78-10.2-3.21c-1.83-1.17-3.04-1.94-5.89-1.94v-8c5.19,0,7.97,1.78,10.2,3.21,1.83,1.17,3.04,1.94,5.89,1.94s4.06-.77,5.89-1.94c2.23-1.43,5.01-3.21,10.2-3.21s7.97,1.78,10.2,3.21c1.83,1.17,3.04,1.94,5.89,1.94s4.06-.77,5.89-1.94c2.23-1.43,5.01-3.21,10.2-3.21v8Z"/>
      <path class="cls-1" d="M75.11,61.61c.54.13,1.08.19,1.6.19,4.08,0,7.42-3.68,6.71-7.95-.54-3.24-3.82-8-6.03-10.43-.16-.18-.3-.35-.53-.44h-.29c-.23.09-.37.26-.53.44-2.22,2.43-5.49,7.19-6.03,10.43-.59,3.52,1.65,6.94,5.12,7.76Z"/>
    </g>
  </g>
</svg>