<?xml version="1.0" encoding="UTF-8"?>
<svg id="Layer_2" data-name="Layer 2" xmlns="http://www.w3.org/2000/svg" viewBox="0 0 64.38 55.15">
  <defs>
    <style>
      .cls-1 {
        fill: #bc3a26;
      }
    </style>
  </defs>
  <g id="Layer_1-2" data-name="Layer 1">
    <g>
      <path class="cls-1" d="M48.28,55.15c-5.19,0-7.97-1.78-10.2-3.21-1.83-1.17-3.04-1.94-5.89-1.94s-4.06.77-5.89,1.94c-2.23,1.43-5.01,3.21-10.2,3.21s-7.97-1.78-10.2-3.21c-1.83-1.17-3.04-1.94-5.89-1.94v-8c5.19,0,7.97,1.78,10.2,3.21,1.83,1.17,3.04,1.94,5.89,1.94s4.06-.77,5.89-1.94c2.23-1.43,5.01-3.21,10.2-3.21s7.97,1.78,10.2,3.21c1.83,1.17,3.04,1.94,5.89,1.94s4.06-.77,5.89-1.94c2.23-1.43,5.01-3.21,10.2-3.21v8c-2.85,0-4.06.77-5.89,1.94-2.23,1.43-5.01,3.21-10.2,3.21Z"/>
      <g>
        <path class="cls-1" d="M34.11,9.94c-.6-.06-1.24-.09-1.92-.09-5.19,0-7.97,1.78-10.2,3.21-1.83,1.17-3.04,1.94-5.89,1.94s-4.06-.77-5.89-1.94c-2.23-1.43-5.01-3.21-10.2-3.21v8c2.85,0,4.06.77,5.89,1.94,2.23,1.43,5.01,3.21,10.2,3.21s7.97-1.78,10.2-3.21c1.4-.89,2.43-1.55,4.11-1.82.86-2.92,2.25-5.68,3.7-8.04Z"/>
        <path class="cls-1" d="M29.63,26.05c-3.6.47-5.82,1.86-7.65,3.03-1.83,1.17-3.04,1.94-5.89,1.94s-4.06-.77-5.89-1.94c-2.23-1.43-5.01-3.21-10.2-3.21v8c2.85,0,4.06.77,5.89,1.94,2.23,1.43,5.01,3.21,10.2,3.21s7.97-1.78,10.2-3.21c1.79-1.15,3-1.91,5.73-1.94-1.3-2.4-2.11-5.05-2.39-7.83Z"/>
        <path class="cls-1" d="M64.18,22.43c-1.12-6.69-7.88-16.51-12.45-21.53-.34-.37-.62-.72-1.1-.91h-.61c-.48.19-.76.54-1.1.91-4.57,5.01-11.33,14.83-12.45,21.53-1.22,7.26,3.4,14.32,10.56,16.01,9.83,2.31,18.81-6.06,17.15-16.01ZM50.33,30.8c-.52,0-1.06-.06-1.6-.19-3.47-.82-5.71-4.24-5.12-7.76.54-3.24,3.82-8,6.03-10.43.16-.18.3-.35.53-.44h.29c.23.09.37.26.53.44,2.22,2.43,5.49,7.19,6.03,10.43.72,4.27-2.62,7.95-6.71,7.95Z"/>
      </g>
    </g>
  </g>
</svg>