<?xml version="1.0" encoding="UTF-8"?>
<svg id="Layer_2" data-name="Layer 2" xmlns="http://www.w3.org/2000/svg" viewBox="0 0 57.45 57.45">
  <defs>
    <style>
      .cls-1 {
        fill: #272727;
      }
    </style>
  </defs>
  <g id="Layer_1-2" data-name="Layer 1">
    <path class="cls-1" d="M54.75,16.59c-3.24-6.95-9-12.22-16.2-14.85-7.21-2.62-15-2.28-21.95.96C9.64,5.95,4.37,11.7,1.75,18.91c-2.62,7.21-2.28,15,.96,21.95,3.24,6.95,9,12.22,16.2,14.85,3.2,1.17,6.53,1.75,9.84,1.75,4.14,0,8.26-.91,12.12-2.71,6.95-3.24,12.22-8.99,14.85-16.2,2.62-7.21,2.28-15-.96-21.95ZM21.47,48.66c-5.32-1.94-9.57-5.83-11.97-10.97-2.39-5.14-2.65-10.9-.71-16.22,1.07-2.95,2.77-5.56,4.92-7.71l23.95,34.2c-5.13,2.38-10.88,2.63-16.2.7ZM48.66,35.98c-1.06,2.92-2.74,5.51-4.86,7.66L19.86,9.46c2.82-1.3,5.83-1.95,8.85-1.95,2.45,0,4.9.43,7.27,1.29,5.32,1.94,9.57,5.83,11.97,10.97,2.39,5.14,2.65,10.9.71,16.22Z"/>
  </g>
</svg>