<?xml version="1.0" encoding="UTF-8"?>
<svg id="Layer_2" data-name="Layer 2" xmlns="http://www.w3.org/2000/svg" viewBox="0 0 43.36 59.91">
  <defs>
    <style>
      .cls-1 {
        fill: #272727;
      }
    </style>
  </defs>
  <g id="Layer_1-2" data-name="Layer 1">
    <path class="cls-1" d="M26.77.6C11.61-2.97-2.26,9.96.31,25.3c1.73,10.33,12.16,25.47,19.21,33.21.52.57.96,1.1,1.7,1.4h.94c.74-.3,1.18-.83,1.7-1.4,7.05-7.74,17.48-22.88,19.21-33.21,1.88-11.2-5.24-22.1-16.29-24.7ZM34.55,26.43c-1.25,3.44-3.77,6.19-7.1,7.74-3.32,1.55-7.05,1.71-10.49.46-3.44-1.25-6.19-3.77-7.74-7.09-1.55-3.32-1.71-7.05-.46-10.49,2.03-5.57,7.3-9.03,12.91-9.03,1.55,0,3.14.27,4.68.83,3.44,1.25,6.19,3.77,7.74,7.09,1.55,3.32,1.71,7.05.46,10.49Z"/>
  </g>
</svg>