<?xml version="1.0" encoding="UTF-8"?>
<svg id="Layer_2" data-name="Layer 2" xmlns="http://www.w3.org/2000/svg" viewBox="0 0 57.43 57.43">
  <defs>
    <style>
      .cls-1 {
        fill: #272727;
      }
    </style>
  </defs>
  <g id="Layer_1-2" data-name="Layer 1">
    <g>
      <path class="cls-1" d="M32.71,47.69h-8v-6.89h8v6.89ZM32.71,35.21h-8v-14.43h8v14.43Z"/>
      <path class="cls-1" d="M52.15,57.43H5.27c-1.88,0-3.63-1.13-4.57-2.96-.94-1.83-.94-4.1,0-5.92L24.14,2.96c.94-1.83,2.69-2.96,4.57-2.96s3.63,1.13,4.57,2.96l23.44,45.58c.94,1.83.94,4.09,0,5.92-.94,1.83-2.69,2.96-4.57,2.96ZM6.38,52.21h0s0,0,0,0ZM7.48,50.07h42.47L28.71,8.78,7.48,50.07Z"/>
    </g>
  </g>
</svg>