<?xml version="1.0" encoding="UTF-8"?>
<svg id="Layer_2" data-name="Layer 2" xmlns="http://www.w3.org/2000/svg" viewBox="0 0 237.54 240.07">
  <defs>
    <style>
      .cls-1 {
        fill: #c4bfbc;
      }
    </style>
  </defs>
  <g id="Layer_1-2" data-name="Layer 1">
    <g id="JTVz2d">
      <g>
        <path class="cls-1" d="M118.25.3c34.77-2.92,66.98,15.46,89.44,40.98,21.73,24.7,20.43,41.12,25.71,71.91,23.91,68.36-60.79,126.09-121.08,126.88-35.12,0-80.87-28.71-95.93-60.44C-28.1,89.56,22.02,12.34,118.25.3ZM119.52,3.49C28.77,15.81-21.45,79.62,15.64,168.89c39.41,88.78,144.14,83.15,201.96,15.63,28.99-33.65,10.31-75.09,5.1-113.58C204.92,33.15,162.85.11,119.52,3.49Z"/>
        <path class="cls-1" d="M124.63,11.15c28.6-2.27,42.53,9.33,62.66,26.92,28.02,24.47,26.27,40.83,33.48,74.98,12.16,35.96-.53,67.03-32.65,86.65-28.62,19.43-65.96,34.5-100.86,24.53-18.82-5.37-49.03-27.96-57.69-45.67C8.19,134.83-.74,65.68,49.86,38.47c19.2-10.32,53.37-25.63,74.76-27.32ZM124.63,12.43c-22.2,1.82-52.91,16.37-72.84,26.7C3.8,63.99,9.33,120.94,25.21,164.42c9.22,25.23,23.03,37.55,45.75,51.23,44.49,30.26,141.37-11.53,151.74-63.04,3.41-16.12.5-22.02-2.69-36.88-2.9-13.51-4.7-28.16-8.4-41.37-4.14-14.74-14.31-25.84-25.6-35.66-19.79-17.21-33.33-28.58-61.39-26.28Z"/>
        <path class="cls-1" d="M132.92,20.71c18.82-.39,30.85,6.41,43.53,19.26,9.94,10.07,19.88,20.56,24.41,34.29,11,39.45,31.36,86.9-12.1,114.59-38.37,22.63-84.56,43.22-124.92,12.22-21.49-16.51-26.07-24.5-33.69-50.54-10.23-34.99-14.64-78.68,21.28-100.29,20.32-12.23,57.94-29.05,81.49-29.54ZM125.9,24.55c-18.99,1.68-59.96,19.66-76,30.55-38.96,28.01-22.04,84.17-7.1,121.07,40.96,54.62,95.3,41.18,145.95,8.84,15.74-9.6,25.26-31.1,24.04-49.31-.49-7.32-3.19-12.65-4.91-19.33-6.63-25.71-7.07-44.61-25.38-65.23-17.32-19.51-28.69-29.07-56.6-26.6Z"/>
        <path class="cls-1" d="M129.09,30.93c50.73-4.49,64.56,56.34,73.83,94.23,3.98,16.27,1.32,34.67-9.91,47.52-7.64,8.73-37.73,21.86-49.42,25.87-41.03,16.68-88.15,1.98-101.32-42.26-8.48-25.82-16.35-65.36,4.32-87.28,6.84-7.25,28.23-17.66,37.96-22.66,13.28-6.81,29.55-14.1,44.55-15.43ZM130.37,34.76c-20.81,1.6-55.17,19.62-73.2,30.81-27.98,17.36-20.45,58.67-12.49,85.13,3.81,12.67,6.02,20.84,15.93,30.01,24.73,22.86,46.58,25.36,78.51,15.31,12.06-3.79,43.49-17.48,51.33-26.51,20.83-24.56,4.25-58.72-3.16-85.49-8.61-25.79-26.63-51.58-56.93-49.24Z"/>
        <path class="cls-1" d="M129.09,41.13c16.72-1.71,31.89,3.37,40.34,18.62,10.55,19.03,18.11,45.28,23.55,66.41,4.61,17.86-.06,36.93-16.54,46.55-41.6,27.06-109.35,36.56-125.52-23.17-10.01-28.89-15-73.23,21.94-83.6,17.14-8.59,36.65-22.81,56.22-24.81ZM129.73,43.69c-19.25,1.96-38.9,16.06-55.79,24.61-6.12,3.1-11,3.4-16.21,8.67-17.9,18.09-11.44,49.33-4.61,71.02,3.41,10.84,5.56,18.9,14.2,26.64,29.44,26.37,58.01,19.2,91.04,4.25,16.51-7.47,29.03-12.4,33.09-31.99,2.95-14.24-4.29-30.24-8.33-44.04-7.07-25.76-19.47-65.61-53.4-59.16Z"/>
        <path class="cls-1" d="M65.62,163.89c-12.48-25.33-22.34-67.3,5.99-85.81,15.15-9.49,40.55-22.69,57.62-27.24,29.64-7.9,38.95,24.47,45.61,46.25,3.3,10.81,10.59,33.38,9.92,43.73-1.07,16.63-10.45,22.97-24.05,29.55-30,15.77-70.42,21.65-95.1-6.49ZM136.12,50.69c-10.47.61-34.38,12.4-44.34,17.59-20.72,10.8-35.5,17.71-37.21,43.82-.88,13.38,5.26,44.42,15.01,53.89,24.69,23.99,56.13,18.55,84.95,5.87,14.34-6.3,27.27-12.12,28.91-29.79.99-10.67-6.61-34.31-10.03-45.46-5.4-17.61-14.03-47.28-37.29-45.92Z"/>
        <path class="cls-1" d="M152.6,66.06c6.69,6.58,13.33,27.84,16,37.28,7.11,25.18,15.51,49.17-14.5,61.7-24.19,10.1-55.24,15.44-76.85-2.88-14.53-12.31-19.45-46.47-11.73-63.37,5.49-12.02,24.79-21.12,36.49-27.32,14.16-7.51,36.75-19.04,50.61-5.41ZM136.03,62.89c-9.65-.06-21.11,5.49-29.57,9.85-7.36,3.8-29.39,15.52-34.01,20.86-13.89,16.08-7.29,55.82,9.61,68.2,19.27,14.13,44.31,9.9,65.36,2.3,16.74-6.05,27.47-14.38,24.39-33.98-2.01-12.81-11.91-49.4-19.35-59.13-4.08-5.33-9.68-8.06-16.43-8.1Z"/>
        <path class="cls-1" d="M131,72.4c4.96-.51,11.71-1.1,15.44,2.69s11.62,24.51,13.09,30.3c4.62,18.13,10.58,43.13-11.96,51.22-20.78,7.45-45.71,11.12-63.96-4.01-14.2-11.77-14.77-43.96-.91-56.39,10.29-9.23,34.59-22.39,48.3-23.8ZM131,73.68c-13.11,1.35-38.05,14.71-47.75,23.71-13.28,12.34-12.35,43.13,1.63,54.56,17.78,14.54,42.61,10.83,62.7,3.39,21.2-7.85,15.04-32.47,10.78-49.43-1.9-7.56-5.84-16.85-9.25-23.92-4.5-9.34-7.9-9.36-18.11-8.31Z"/>
        <path class="cls-1" d="M130.39,80.03c21.75-3.56,34.46,55.92,19.85,66.48-4.64,4.14-18.39,8.92-24.61,9.84-32.92,4.9-62.24-24.25-37.86-54.45,6.77-8.39,31.92-21.49,42.63-21.87ZM126.52,83.86c-8.34,1.14-30.02,12.95-35.56,19.31-26.36,32.24,11.67,59.69,43.7,47.52,9.32-3.22,16.63-6.69,18.52-17.21,2.06-11.45-4.26-33.96-10.44-43.86-3.86-6.19-9.4-6.7-16.23-5.77Z"/>
        <path class="cls-1" d="M125.25,88.34c19.64-1.94,28.91,34.1,21.55,47.71-8.35,15.43-47.76,15.17-56.39.18-11.95-20.77,15.59-45.98,34.84-47.88ZM125.9,90.89c-17.6,1.66-46.86,27.49-32.03,45.71,9.25,11.36,43.93,11.67,50.78-2.06,5.87-12.38-1.49-44.56-18.75-43.65Z"/>
        <path class="cls-1" d="M121.41,97.26c14.98-2.08,22.61,17.81,18.51,29.99-5.35,15.89-45.94,18.01-43.24-6.88,1.03-9.52,15.44-21.82,24.73-23.11ZM122.06,100.45c-8.36,1.05-21.6,12.51-22.21,21.19-1.37,19.59,32.77,16.96,37.06,4.53,3.35-9.7-2.87-27.22-14.86-25.71Z"/>
        <path class="cls-1" d="M122.72,103.62c10.72-.61,16.92,18.31,8.09,25.38-4.7,3.76-15.79,5.23-21.18,2.68-13.96-6.62,1.23-27.38,13.09-28.06ZM123.17,107.61c-7.56-.17-20.18,13.87-13.06,19.77,4.32,3.57,17.57,1.47,20.31-3.88,2.56-5.02-.96-15.74-7.25-15.89Z"/>
        <path class="cls-1" d="M120.12,111.91c9.57-1.97,11.91,11.6,3.25,14.1-13.38,3.91-14.25-10.25-3.25-14.1ZM115.92,122.53c4.05,2.27,11.55-.27,9.14-5.64-2.25-5.01-11.02,1.09-9.14,5.64Z"/>
      </g>
    </g>
  </g>
</svg>