<?xml version="1.0" encoding="UTF-8"?>
<svg id="Layer_2" data-name="Layer 2" xmlns="http://www.w3.org/2000/svg" viewBox="0 0 64.88 52.99">
  <defs>
    <style>
      .cls-1 {
        fill: #6b6b6b;
      }
    </style>
  </defs>
  <g id="Layer_1-2" data-name="Layer 1">
    <g>
      <path class="cls-1" d="M42.95,19H0v-4h42.95c3.03,0,5.5-2.47,5.5-5.5s-2.47-5.5-5.5-5.5-5.5,2.47-5.5,5.5h-4c0-5.24,4.26-9.5,9.5-9.5s9.5,4.26,9.5,9.5-4.26,9.5-9.5,9.5Z"/>
      <path class="cls-1" d="M55.38,43.48c-5.24,0-9.5-4.26-9.5-9.5h4c0,3.03,2.47,5.5,5.5,5.5s5.5-2.47,5.5-5.5-2.47-5.5-5.5-5.5H0v-4h55.38c5.24,0,9.5,4.26,9.5,9.5s-4.26,9.5-9.5,9.5Z"/>
      <path class="cls-1" d="M36.24,52.99c-5.24,0-9.5-4.26-9.5-9.5h4c0,3.03,2.47,5.5,5.5,5.5s5.5-2.47,5.5-5.5-2.47-5.5-5.5-5.5H0v-4h36.24c5.24,0,9.5,4.26,9.5,9.5s-4.26,9.5-9.5,9.5Z"/>
    </g>
  </g>
</svg>